<?xml version="1.0" encoding="utf-8"?>
<!-- Generator: Adobe Illustrator 24.0.0, SVG Export Plug-In . SVG Version: 6.00 Build 0)  -->
<svg version="1.1" id="Capa_1" xmlns="http://www.w3.org/2000/svg" xmlns:xlink="http://www.w3.org/1999/xlink" x="0px" y="0px"
	 viewBox="0 0 163.8 109.3" style="enable-background:new 0 0 163.8 109.3;" xml:space="preserve">
<style type="text/css">
	.st0{fill:#24306E;}
	.st1{fill:none;stroke:#24306E;stroke-width:2;stroke-miterlimit:10;}
	.st2{fill:none;}
	.st3{font-family:'ArialMT';}
	.st4{font-size:10px;}
</style>
<g>
	<path class="st0" d="M20.4,73c0.3-3,0.5-5.6,0.7-7.6c0.1-2,0.3-4.8,0.4-8.2s0.2-5.7,0.2-6.8l0-1.6c3,0,6.6,0,10.9,0
		c3.9,0,7.4,0,10.4,0l0,0.6c0,0.1,0,0.7-0.1,1.5l-0.1,1.9c0,0.4,0,0.8,0,1.2c-2.5-0.1-4.5-0.1-6.2-0.1c-1.8,0-3.1,0-3.7,0
		c-0.6,0-1.6,0-3,0.1l-0.2,4.1c1.5,0,3.3,0,5.3,0c0.7,0,2.6,0,5.7-0.1c-0.1,1.5-0.2,3.3-0.4,5.4c-2.2,0-3.9,0-5.1,0
		c-1.8,0-3.7,0-5.9,0.1L29,67.9h2.2c0.6,0,2,0,4-0.1l4-0.1c0.6,0,1.6-0.1,2.9-0.1c-0.2,1.8-0.3,3.6-0.4,5.4c-3.1,0-6.5,0-10.2,0
		l-8.4,0L20.4,73z"/>
</g>
<g>
	<path class="st0" d="M22.2,34.3c0.8,0,1.4,0,1.7,0c0.4,0,1,0,1.7,0l-0.2,3.1c0,0.6-0.1,1.1-0.1,1.7c0,0.5,0,0.9,0,1.1
		c0,0.4,0,0.7,0.1,0.9s0.2,0.5,0.3,0.6c0.1,0.2,0.4,0.3,0.6,0.4c0.3,0.1,0.6,0.1,0.9,0.1c0.2,0,0.5,0,0.7-0.1c0.2,0,0.3-0.1,0.5-0.2
		c0.1-0.1,0.2-0.2,0.3-0.3c0.1-0.1,0.2-0.3,0.3-0.5c0.1-0.2,0.1-0.5,0.2-0.8c0-0.3,0.1-1,0.2-2.2c0.1-1,0.1-1.8,0.2-2.7
		c0-0.8,0.1-1.2,0.1-1.2c0.8,0,1.4,0,1.9,0h1.6l-0.4,5.2c0,0.1,0,0.2,0,0.2c0,1-0.1,1.7-0.2,2.2c-0.1,0.4-0.3,0.8-0.6,1.1
		s-0.6,0.6-1.2,0.8s-1.1,0.4-1.7,0.5c-0.6,0.1-1.3,0.2-2,0.2c-0.6,0-1.2,0-1.7-0.1c-0.5-0.1-1-0.2-1.4-0.3c-0.4-0.2-0.8-0.3-1.1-0.5
		c-0.3-0.2-0.5-0.4-0.6-0.6c-0.1-0.2-0.3-0.4-0.4-0.7c-0.1-0.3-0.1-0.6-0.1-1c0-0.1,0-0.3,0-0.5c0-0.2,0-0.6,0.1-1l0.1-1.2
		c0-0.3,0.1-0.8,0.1-1.3L22.2,34.3z"/>
</g>
<g>
	<path class="st0" d="M34.1,44.3l0.2-1.5l0.3-5.2l0.1-2.1v-1.2c0.8,0,1.5,0,2.2,0c0.5,0,1.1,0,1.9,0l3.4,5.7l0.5,0.8
		c0.1-0.8,0.1-2,0.2-3.5s0.1-2.5,0.1-3.1c0.7,0,1.2,0,1.6,0c0.2,0,0.7,0,1.5,0l-0.2,2.2l-0.4,6.1l0,1.8c-0.7,0-1.3,0-1.9,0
		c-0.5,0-1.2,0-2.1,0c-0.3-0.5-0.5-0.8-0.6-1l-1.3-2.1c-0.4-0.7-0.8-1.3-1.2-2c-0.2-0.4-0.5-0.8-0.8-1.3l-0.2,3.5l-0.1,2.9
		c-0.7,0-1.2,0-1.5,0C35.4,44.3,34.9,44.3,34.1,44.3z"/>
</g>
<g>
	<path class="st0" d="M47.7,44.3c0.3-3.9,0.5-6.9,0.5-9l0-1c0.9,0,1.5,0,1.8,0c0.1,0,0.7,0,1.7,0c-0.1,1.1-0.2,2.1-0.2,3.1
		c-0.1,1.4-0.1,2.6-0.2,3.8c0,1.2,0,2.2,0,3l-1.6,0C49.3,44.3,48.7,44.3,47.7,44.3z"/>
</g>
<g>
	<path class="st0" d="M56.9,44.3l-0.3-0.9l-1.9-5.2l-1.5-4c0.7,0,1.4,0,1.9,0c0.3,0,0.9,0,1.6,0c0.1,0.4,0.2,0.8,0.3,1
		c0.1,0.3,0.3,0.8,0.5,1.6l1.2,3.5c0.1,0.4,0.3,0.8,0.4,1.4l0.4-0.8l2.8-5.6c0-0.1,0.1-0.2,0.2-0.3c0.1-0.1,0.2-0.3,0.3-0.7
		c0.8,0,1.4,0,1.8,0c0.3,0,0.9,0,1.7,0c-0.5,0.9-1.2,2-1.8,3.2l-2.7,5c-0.3,0.5-0.6,1.1-0.9,1.7c-0.9,0-1.5,0-1.9,0
		C58.5,44.3,57.9,44.3,56.9,44.3z"/>
</g>
<g>
	<path class="st0" d="M66.9,44.3c0.1-1.3,0.2-2.3,0.3-3.2s0.1-2,0.2-3.4s0.1-2.3,0.1-2.8l0-0.6c1.2,0,2.8,0,4.5,0c1.6,0,3.1,0,4.3,0
		l0,0.2c0,0.1,0,0.3,0,0.6L76.2,36c0,0.2,0,0.3,0,0.5c-1,0-1.9-0.1-2.6-0.1c-0.8,0-1.3,0-1.5,0c-0.3,0-0.7,0-1.2,0l-0.1,1.7
		c0.6,0,1.3,0,2.2,0c0.3,0,1.1,0,2.4,0c-0.1,0.6-0.1,1.4-0.2,2.2c-0.9,0-1.6,0-2.1,0c-0.7,0-1.5,0-2.4,0l-0.1,1.8h0.9
		c0.3,0,0.8,0,1.7,0l1.6,0c0.2,0,0.7,0,1.2-0.1c-0.1,0.7-0.1,1.5-0.2,2.2c-1.3,0-2.7,0-4.2,0l-3.5,0H66.9z"/>
</g>
<g>
	<path class="st0" d="M77.8,44.3c0.1-0.9,0.2-1.6,0.2-2.3s0.1-1.5,0.2-2.4s0.1-1.9,0.1-2.9c0-1,0-1.8,0-2.4c0.7,0,1.2,0,1.6,0
		c0.4,0,0.9,0,1.5,0c0.6,0,1.2,0,1.8,0c0.7,0,1.3,0,1.8,0.1c0.4,0,0.8,0.1,1.1,0.2c0.3,0.1,0.6,0.2,0.8,0.4c0.2,0.2,0.4,0.3,0.6,0.5
		c0.2,0.2,0.3,0.4,0.3,0.7c0.1,0.3,0.1,0.5,0.1,0.8c0,0.3,0,0.6-0.1,0.9c-0.1,0.3-0.2,0.5-0.4,0.8c-0.2,0.2-0.4,0.5-0.7,0.7
		s-0.7,0.4-1.2,0.6l0.4,0.9c0.1,0.3,0.2,0.5,0.4,0.8l1.1,2.2c0.1,0.1,0.1,0.3,0.2,0.5c-0.9,0-1.5,0-1.8,0c-0.4,0-1,0-1.9,0
		c-0.1-0.2-0.2-0.7-0.5-1.4c-0.1-0.3-0.2-0.5-0.2-0.7c-0.1-0.3-0.3-0.8-0.6-1.5l-0.8-2.1c0.3,0,0.6,0.1,0.8,0.1c0.4,0,0.7,0,1.1-0.2
		c0.3-0.1,0.6-0.3,0.7-0.5c0.2-0.2,0.2-0.5,0.2-0.7c0-0.2-0.1-0.4-0.2-0.5s-0.3-0.3-0.6-0.3c-0.3-0.1-0.7-0.1-1.2-0.1
		c-0.2,0-0.4,0-0.6,0c-0.2,0-0.4,0-0.7,0c-0.1,1-0.1,2.2-0.2,3.7s-0.1,2.8-0.1,4.2c-0.9,0-1.5,0-1.7,0
		C79.2,44.3,78.6,44.3,77.8,44.3z"/>
</g>
<g>
	<path class="st0" d="M89.3,44.2c-0.1-1-0.2-1.9-0.2-2.5c0.6,0.2,1.1,0.4,1.6,0.5s0.9,0.1,1.2,0.1c0.5,0,0.8-0.1,1.1-0.2
		c0.3-0.1,0.4-0.3,0.4-0.5c0-0.1,0-0.2,0-0.2s-0.1-0.2-0.2-0.3s-0.2-0.2-0.3-0.3l-1.5-1.2c-0.3-0.3-0.6-0.5-0.7-0.6
		c-0.3-0.2-0.5-0.5-0.7-0.7s-0.3-0.4-0.3-0.7c-0.1-0.2-0.1-0.5-0.1-0.7c0-0.3,0.1-0.6,0.2-0.9s0.3-0.5,0.5-0.8s0.5-0.5,0.9-0.6
		s0.8-0.3,1.2-0.4c0.4-0.1,0.9-0.1,1.3-0.1c0.9,0,1.9,0.1,2.9,0.3c0,0.3,0,0.7,0.1,0.9c0,0.3,0.1,0.8,0.2,1.5
		c-0.5-0.2-0.9-0.3-1.3-0.4s-0.8-0.1-1-0.1c-0.4,0-0.8,0.1-1,0.2c-0.3,0.1-0.4,0.3-0.4,0.5c0,0.1,0,0.2,0.1,0.3s0.1,0.2,0.2,0.3
		c0.1,0.1,0.3,0.3,0.5,0.4s0.5,0.4,0.9,0.7l0.6,0.4c0.2,0.1,0.3,0.3,0.6,0.5s0.4,0.4,0.5,0.5s0.2,0.3,0.3,0.5
		c0.1,0.2,0.1,0.3,0.2,0.4c0,0.2,0.1,0.3,0.1,0.5c0,0.4-0.1,0.9-0.3,1.3c-0.2,0.4-0.6,0.7-1,1c-0.4,0.3-0.9,0.4-1.4,0.5
		c-0.5,0.1-1,0.2-1.6,0.2C91.7,44.5,90.6,44.4,89.3,44.2z"/>
</g>
<g>
	<path class="st0" d="M99.1,44.3c0.3-3.9,0.5-6.9,0.5-9l0-1c0.9,0,1.5,0,1.8,0c0.1,0,0.7,0,1.7,0c-0.1,1.1-0.2,2.1-0.2,3.1
		c-0.1,1.4-0.1,2.6-0.2,3.8c0,1.2-0.1,2.2-0.1,3l-1.6,0C100.7,44.3,100.1,44.3,99.1,44.3z"/>
</g>
<g>
	<path class="st0" d="M104.8,44.3c0.1-1.1,0.2-2,0.2-2.7c0.1-1,0.1-2.3,0.2-3.9c0.1-1.2,0.1-2.1,0.1-2.6v-0.9c0.6,0,1.2,0,1.6,0
		c0.4,0,1,0,1.7,0s1.4,0,2,0c0.7,0,1.3,0,1.9,0.1s1,0.2,1.5,0.5c0.5,0.2,0.8,0.6,1.2,1s0.6,0.9,0.7,1.4c0.2,0.5,0.2,1.1,0.2,1.6
		c0,0.5-0.1,1.1-0.2,1.6c-0.1,0.5-0.3,1-0.5,1.4c-0.2,0.4-0.5,0.8-0.8,1.1c-0.3,0.3-0.7,0.5-1,0.8c-0.3,0.2-0.6,0.3-0.9,0.4
		s-0.7,0.2-1.2,0.2c-0.6,0.1-1.2,0.1-1.9,0.1l-3.2,0C106,44.3,105.5,44.3,104.8,44.3z M108.2,42.1c0.3,0,0.6,0,0.9,0
		c0.5,0,1,0,1.4-0.1s0.8-0.3,1.1-0.6s0.6-0.7,0.7-1.1s0.2-0.9,0.2-1.4c0-0.6-0.1-1.1-0.3-1.5c-0.2-0.4-0.5-0.7-0.9-0.8
		s-0.9-0.2-1.5-0.2c-0.4,0-0.8,0-1.3,0L108.2,42.1z"/>
</g>
<g>
	<path class="st0" d="M129.7,44.3c0.1-1.1,0.2-2,0.2-2.7c0.1-1,0.1-2.3,0.2-3.9c0.1-1.2,0.1-2.1,0.1-2.6v-0.9c0.6,0,1.1,0,1.6,0
		c0.4,0,1,0,1.7,0s1.4,0,2,0c0.7,0,1.3,0,1.9,0.1s1,0.2,1.5,0.5c0.5,0.2,0.9,0.6,1.2,1s0.6,0.9,0.7,1.4s0.2,1.1,0.2,1.6
		c0,0.5-0.1,1.1-0.2,1.6s-0.3,1-0.5,1.4s-0.5,0.8-0.8,1.1c-0.3,0.3-0.6,0.5-1,0.8c-0.3,0.2-0.6,0.3-0.9,0.4s-0.7,0.2-1.2,0.2
		c-0.6,0.1-1.2,0.1-1.9,0.1l-3.2,0C130.8,44.3,130.3,44.3,129.7,44.3z M133.1,42.1c0.3,0,0.6,0,0.9,0c0.5,0,1,0,1.4-0.1
		s0.8-0.3,1.1-0.6s0.6-0.7,0.7-1.1c0.1-0.5,0.2-0.9,0.2-1.4c0-0.6-0.1-1.1-0.3-1.5s-0.5-0.7-0.9-0.8s-0.9-0.2-1.5-0.2
		c-0.4,0-0.8,0-1.4,0L133.1,42.1z"/>
</g>
<g>
	<path class="st0" d="M115.1,44.3l0.7-1l4.1-7.1l0.4-0.8c0.1-0.2,0.3-0.6,0.5-1c0.9,0,1.6,0,2,0c0.7,0,1.4,0,2.1,0l1.2,3l2.4,5.9
		l0.5,1.1c-0.9,0-1.5,0-1.7,0c-0.4,0-1.1,0-2,0c-0.2-0.8-0.6-1.8-1-2.8h-4c-0.5,0.9-0.9,1.8-1.4,2.8c-1,0-1.6,0-1.8,0
		C116.6,44.3,116,44.3,115.1,44.3z M121.2,39.3h2.5c-0.6-1.7-0.9-2.7-1-2.8c-0.3,0.7-0.6,1.3-0.9,1.8L121.2,39.3z"/>
</g>
<g>
	<path class="st0" d="M43.5,73.1l1.6-2.6L55,53.3l1-1.9c0.3-0.6,0.7-1.4,1.3-2.4c2.2,0,3.9,0,4.9,0c1.8,0,3.5,0,5,0l2.8,7.4
		l5.7,14.2l1.1,2.6c-2.2,0-3.6,0-4,0c-1.1,0-2.7,0-4.7,0c-0.6-1.9-1.4-4.2-2.4-6.9H56c-1.1,2.1-2.2,4.4-3.4,6.9c-2.4,0-3.8,0-4.4,0
		C47.3,73,45.7,73,43.5,73.1z M58.4,61.1h5.9c-1.5-4.2-2.3-6.4-2.4-6.9c-0.8,1.7-1.5,3.2-2.1,4.2L58.4,61.1z"/>
</g>
<g>
	<path class="st0" d="M79.1,73.1c0.3-2.4,0.4-4.3,0.6-5.8c0.2-2.2,0.3-5.1,0.4-8.8c0.1-3.8,0.2-6.3,0.2-7.6v-1.9c3.8,0,7.4,0,10.7,0
		c3.3,0,6.5,0,9.6,0c-0.2,2.7-0.3,4.5-0.3,5.3l-1.7,0l-1.3,0l-1.3,0h-3.8c-0.4,0-1.7,0-3.8,0l-0.2,4.1l2.8,0H94c0.9,0,2.3,0,4.1,0
		c-0.1,2.2-0.2,4-0.2,5.2c-2.1-0.1-3.6-0.1-4.6-0.1c-1.7,0-3.5,0-5.5,0.1l-0.2,6.4l0,2.4v0.8l-4.1,0C83.2,73,81.7,73,79.1,73.1z"/>
</g>
<g>
	<path class="st0" d="M102.4,73c0.7-9.5,1.1-16.8,1.1-21.9l0-2.3c2.2,0,3.7,0,4.5,0c0.3,0,1.7,0,4.1,0c-0.2,2.7-0.4,5.2-0.6,7.5
		c-0.2,3.3-0.3,6.4-0.4,9.3c-0.1,2.9-0.1,5.3-0.1,7.3l-3.9,0C106.4,73,104.8,73,102.4,73z"/>
</g>
<g>
	<path class="st0" d="M122.1,73.1c0.6-5.7,1-12,1.1-18.9l-8.1,0.2l0.1-2c0.1-1,0.1-2.2,0.1-3.5c3.6,0,7.8,0,12.7,0l4.7,0h4.6l2.5,0
		l-0.1,1.7c-0.1,0.9-0.1,1.7-0.1,2.3c0,0.6,0,1.1,0,1.4c-2.7-0.1-5-0.2-6.8-0.2h-1.3c-0.2,2.1-0.3,4-0.4,5.8c-0.1,2.5-0.2,5-0.3,7.4
		s-0.1,4.3-0.1,5.8c-2.1,0-3.4,0-4.1,0C125.9,73,124.5,73,122.1,73.1z"/>
</g>
<path class="st1" d="M20,82.4c39.4-5.5,79.6-5.3,119,0.1"/>
<rect x="132.6" y="71.4" class="st2" width="8.1" height="11.7"/>
<text transform="matrix(1.0815 0 0 1 132.6226 78.5416)" class="st0 st3 st4">®</text>
</svg>
