<?xml version="1.0" encoding="UTF-8" standalone="no"?>
<svg
   width="16px"
   height="16px"
   viewBox="0 0 16 16"
   class="bi bi-geo-alt-fill"
   fill="currentColor"
   version="1.1"
   id="svg146"
   sodipodi:docname="eafit_icon.svg"
   xml:space="preserve"
   inkscape:version="1.2.1 (9c6d41e410, 2022-07-14)"
   xmlns:inkscape="http://www.inkscape.org/namespaces/inkscape"
   xmlns:sodipodi="http://sodipodi.sourceforge.net/DTD/sodipodi-0.dtd"
   xmlns="http://www.w3.org/2000/svg"
   xmlns:svg="http://www.w3.org/2000/svg"><defs
     id="defs150" /><sodipodi:namedview
     id="namedview148"
     pagecolor="#ffffff"
     bordercolor="#111111"
     borderopacity="1"
     inkscape:showpageshadow="0"
     inkscape:pageopacity="0"
     inkscape:pagecheckerboard="1"
     inkscape:deskcolor="#d1d1d1"
     showgrid="false"
     inkscape:zoom="12.506951"
     inkscape:cx="-7.8356428"
     inkscape:cy="7.8756205"
     inkscape:window-width="1358"
     inkscape:window-height="693"
     inkscape:window-x="0"
     inkscape:window-y="46"
     inkscape:window-maximized="1"
     inkscape:current-layer="layer1" /><path
     fill-rule="evenodd"
     d="M8 16s6-5.686 6-10A6 6 0 0 0 2 6c0 4.314 6 10 6 10zm0-7a3 3 0 1 0 0-6 3 3 0 0 0 0 6z"
     id="path144" /><path
     style="fill:#ffffff;stroke-width:0.0799555"
     d="M 7.1524019,15.05163 C 4.5513201,12.316791 2.7890834,9.5526318 2.2339722,7.336818 1.9956288,6.3854328 2.0411285,5.0908113 2.3457032,4.1576879 2.9548867,2.2913372 4.4209028,0.88476439 6.3984597,0.26926079 7.2609638,8.1117291e-4 8.7387479,-9.8151019e-5 9.5946644,0.26729407 12.453201,1.160314 14.254812,3.8137254 13.905522,6.6163207 13.68325,8.3997521 12.5073,10.654653 10.490696,13.164301 c -0.8101338,1.008205 -2.3761254,2.706873 -2.4954496,2.706873 -0.034861,0 -0.4141407,-0.368795 -0.8428445,-0.819544 z M 8.630309,8.956696 C 8.82551,8.9300908 9.1968569,8.7955224 9.4555245,8.6576535 10.71457,7.9865899 11.315392,6.4940887 10.884854,5.1070579 10.589221,4.1546377 9.9751888,3.5023149 9.046555,3.1541232 8.3937134,2.90934 7.3400255,2.9541965 6.6974124,3.2541287 4.8242854,4.1283887 4.3857784,6.6702552 5.8544599,8.1404195 6.4221206,8.7086532 7.4712388,9.1205017 8.115487,9.0280228 8.2034381,9.0153978 8.435108,8.9833004 8.630309,8.956696 Z"
     id="path379" /><g
     inkscape:groupmode="layer"
     id="layer1"
     inkscape:label="Logo"><g
       id="g705"
       transform="matrix(0.12166537,0,0,0.12166537,-1.7911722,-3.1533603)"><g
         id="g596">
	<path
   class="st0"
   d="m 20.4,73 c 0.3,-3 0.5,-5.6 0.7,-7.6 0.1,-2 0.3,-4.8 0.4,-8.2 0.1,-3.4 0.2,-5.7 0.2,-6.8 v -1.6 c 3,0 6.6,0 10.9,0 3.9,0 7.4,0 10.4,0 v 0.6 c 0,0.1 0,0.7 -0.1,1.5 l -0.1,1.9 c 0,0.4 0,0.8 0,1.2 -2.5,-0.1 -4.5,-0.1 -6.2,-0.1 -1.8,0 -3.1,0 -3.7,0 -0.6,0 -1.6,0 -3,0.1 l -0.2,4.1 c 1.5,0 3.3,0 5.3,0 0.7,0 2.6,0 5.7,-0.1 -0.1,1.5 -0.2,3.3 -0.4,5.4 -2.2,0 -3.9,0 -5.1,0 -1.8,0 -3.7,0 -5.9,0.1 L 29,67.9 h 2.2 c 0.6,0 2,0 4,-0.1 l 4,-0.1 c 0.6,0 1.6,-0.1 2.9,-0.1 -0.2,1.8 -0.3,3.6 -0.4,5.4 -3.1,0 -6.5,0 -10.2,0 h -8.4 z"
   id="path594" />
</g><g
         id="g600">
	<path
   class="st0"
   d="m 22.2,34.3 c 0.8,0 1.4,0 1.7,0 0.4,0 1,0 1.7,0 l -0.2,3.1 c 0,0.6 -0.1,1.1 -0.1,1.7 0,0.5 0,0.9 0,1.1 0,0.4 0,0.7 0.1,0.9 0.1,0.2 0.2,0.5 0.3,0.6 0.1,0.2 0.4,0.3 0.6,0.4 0.3,0.1 0.6,0.1 0.9,0.1 0.2,0 0.5,0 0.7,-0.1 0.2,0 0.3,-0.1 0.5,-0.2 0.1,-0.1 0.2,-0.2 0.3,-0.3 0.1,-0.1 0.2,-0.3 0.3,-0.5 0.1,-0.2 0.1,-0.5 0.2,-0.8 0,-0.3 0.1,-1 0.2,-2.2 0.1,-1 0.1,-1.8 0.2,-2.7 0,-0.8 0.1,-1.2 0.1,-1.2 0.8,0 1.4,0 1.9,0 h 1.6 l -0.4,5.2 c 0,0.1 0,0.2 0,0.2 0,1 -0.1,1.7 -0.2,2.2 -0.1,0.4 -0.3,0.8 -0.6,1.1 -0.3,0.3 -0.6,0.6 -1.2,0.8 -0.6,0.2 -1.1,0.4 -1.7,0.5 -0.6,0.1 -1.3,0.2 -2,0.2 -0.6,0 -1.2,0 -1.7,-0.1 -0.5,-0.1 -1,-0.2 -1.4,-0.3 -0.4,-0.2 -0.8,-0.3 -1.1,-0.5 -0.3,-0.2 -0.5,-0.4 -0.6,-0.6 -0.1,-0.2 -0.3,-0.4 -0.4,-0.7 -0.1,-0.3 -0.1,-0.6 -0.1,-1 0,-0.1 0,-0.3 0,-0.5 0,-0.2 0,-0.6 0.1,-1 L 22,38.5 c 0,-0.3 0.1,-0.8 0.1,-1.3 z"
   id="path598" />
</g><g
         id="g604">
	<path
   class="st0"
   d="m 34.1,44.3 0.2,-1.5 0.3,-5.2 0.1,-2.1 v -1.2 c 0.8,0 1.5,0 2.2,0 0.5,0 1.1,0 1.9,0 l 3.4,5.7 0.5,0.8 c 0.1,-0.8 0.1,-2 0.2,-3.5 0.1,-1.5 0.1,-2.5 0.1,-3.1 0.7,0 1.2,0 1.6,0 0.2,0 0.7,0 1.5,0 l -0.2,2.2 -0.4,6.1 v 1.8 c -0.7,0 -1.3,0 -1.9,0 -0.5,0 -1.2,0 -2.1,0 -0.3,-0.5 -0.5,-0.8 -0.6,-1 l -1.3,-2.1 c -0.4,-0.7 -0.8,-1.3 -1.2,-2 -0.2,-0.4 -0.5,-0.8 -0.8,-1.3 l -0.2,3.5 -0.1,2.9 c -0.7,0 -1.2,0 -1.5,0 -0.4,0 -0.9,0 -1.7,0 z"
   id="path602" />
</g><g
         id="g608">
	<path
   class="st0"
   d="m 47.7,44.3 c 0.3,-3.9 0.5,-6.9 0.5,-9 v -1 c 0.9,0 1.5,0 1.8,0 0.1,0 0.7,0 1.7,0 -0.1,1.1 -0.2,2.1 -0.2,3.1 -0.1,1.4 -0.1,2.6 -0.2,3.8 0,1.2 0,2.2 0,3 h -1.6 c -0.4,0.1 -1,0.1 -2,0.1 z"
   id="path606" />
</g><g
         id="g612">
	<path
   class="st0"
   d="m 56.9,44.3 -0.3,-0.9 -1.9,-5.2 -1.5,-4 c 0.7,0 1.4,0 1.9,0 0.3,0 0.9,0 1.6,0 0.1,0.4 0.2,0.8 0.3,1 0.1,0.3 0.3,0.8 0.5,1.6 l 1.2,3.5 c 0.1,0.4 0.3,0.8 0.4,1.4 l 0.4,-0.8 2.8,-5.6 c 0,-0.1 0.1,-0.2 0.2,-0.3 0.1,-0.1 0.2,-0.3 0.3,-0.7 0.8,0 1.4,0 1.8,0 0.3,0 0.9,0 1.7,0 -0.5,0.9 -1.2,2 -1.8,3.2 l -2.7,5 c -0.3,0.5 -0.6,1.1 -0.9,1.7 -0.9,0 -1.5,0 -1.9,0 -0.5,0.1 -1.1,0.1 -2.1,0.1 z"
   id="path610" />
</g><g
         id="g616">
	<path
   class="st0"
   d="M 66.9,44.3 C 67,43 67.1,42 67.2,41.1 c 0.1,-0.9 0.1,-2 0.2,-3.4 0.1,-1.4 0.1,-2.3 0.1,-2.8 v -0.6 c 1.2,0 2.8,0 4.5,0 1.6,0 3.1,0 4.3,0 v 0.2 c 0,0.1 0,0.3 0,0.6 L 76.2,36 c 0,0.2 0,0.3 0,0.5 -1,0 -1.9,-0.1 -2.6,-0.1 -0.8,0 -1.3,0 -1.5,0 -0.3,0 -0.7,0 -1.2,0 l -0.1,1.7 c 0.6,0 1.3,0 2.2,0 0.3,0 1.1,0 2.4,0 -0.1,0.6 -0.1,1.4 -0.2,2.2 -0.9,0 -1.6,0 -2.1,0 -0.7,0 -1.5,0 -2.4,0 l -0.1,1.8 h 0.9 c 0.3,0 0.8,0 1.7,0 h 1.6 c 0.2,0 0.7,0 1.2,-0.1 -0.1,0.7 -0.1,1.5 -0.2,2.2 -1.3,0 -2.7,0 -4.2,0 h -3.5 -1.2 z"
   id="path614" />
</g><g
         id="g620">
	<path
   class="st0"
   d="M 77.8,44.3 C 77.9,43.4 78,42.7 78,42 c 0,-0.7 0.1,-1.5 0.2,-2.4 0.1,-0.9 0.1,-1.9 0.1,-2.9 0,-1 0,-1.8 0,-2.4 0.7,0 1.2,0 1.6,0 0.4,0 0.9,0 1.5,0 0.6,0 1.2,0 1.8,0 0.7,0 1.3,0 1.8,0.1 0.4,0 0.8,0.1 1.1,0.2 0.3,0.1 0.6,0.2 0.8,0.4 0.2,0.2 0.4,0.3 0.6,0.5 0.2,0.2 0.3,0.4 0.3,0.7 0.1,0.3 0.1,0.5 0.1,0.8 0,0.3 0,0.6 -0.1,0.9 -0.1,0.3 -0.2,0.5 -0.4,0.8 -0.2,0.2 -0.4,0.5 -0.7,0.7 -0.3,0.2 -0.7,0.4 -1.2,0.6 l 0.4,0.9 c 0.1,0.3 0.2,0.5 0.4,0.8 l 1.1,2.2 c 0.1,0.1 0.1,0.3 0.2,0.5 -0.9,0 -1.5,0 -1.8,0 -0.4,0 -1,0 -1.9,0 C 83.8,44.2 83.7,43.7 83.4,43 83.3,42.7 83.2,42.5 83.2,42.3 83.1,42 82.9,41.5 82.6,40.8 l -0.8,-2.1 c 0.3,0 0.6,0.1 0.8,0.1 0.4,0 0.7,0 1.1,-0.2 0.3,-0.1 0.6,-0.3 0.7,-0.5 0.2,-0.2 0.2,-0.5 0.2,-0.7 0,-0.2 -0.1,-0.4 -0.2,-0.5 -0.1,-0.1 -0.3,-0.3 -0.6,-0.3 -0.3,-0.1 -0.7,-0.1 -1.2,-0.1 -0.2,0 -0.4,0 -0.6,0 -0.2,0 -0.4,0 -0.7,0 -0.1,1 -0.1,2.2 -0.2,3.7 C 81,41.7 81,43 81,44.4 c -0.9,0 -1.5,0 -1.7,0 -0.1,-0.1 -0.7,-0.1 -1.5,-0.1 z"
   id="path618" />
</g><g
         id="g624">
	<path
   class="st0"
   d="m 89.3,44.2 c -0.1,-1 -0.2,-1.9 -0.2,-2.5 0.6,0.2 1.1,0.4 1.6,0.5 0.5,0.1 0.9,0.1 1.2,0.1 0.5,0 0.8,-0.1 1.1,-0.2 0.3,-0.1 0.4,-0.3 0.4,-0.5 0,-0.1 0,-0.2 0,-0.2 0,0 -0.1,-0.2 -0.2,-0.3 C 93.1,41 93,40.9 92.9,40.8 L 91.4,39.6 C 91.1,39.3 90.8,39.1 90.7,39 90.4,38.8 90.2,38.5 90,38.3 c -0.2,-0.2 -0.3,-0.4 -0.3,-0.7 -0.1,-0.2 -0.1,-0.5 -0.1,-0.7 0,-0.3 0.1,-0.6 0.2,-0.9 0.1,-0.3 0.3,-0.5 0.5,-0.8 0.2,-0.3 0.5,-0.5 0.9,-0.6 0.4,-0.1 0.8,-0.3 1.2,-0.4 0.4,-0.1 0.9,-0.1 1.3,-0.1 0.9,0 1.9,0.1 2.9,0.3 0,0.3 0,0.7 0.1,0.9 0,0.3 0.1,0.8 0.2,1.5 -0.5,-0.2 -0.9,-0.3 -1.3,-0.4 -0.4,-0.1 -0.8,-0.1 -1,-0.1 -0.4,0 -0.8,0.1 -1,0.2 -0.3,0.1 -0.4,0.3 -0.4,0.5 0,0.1 0,0.2 0.1,0.3 0.1,0.1 0.1,0.2 0.2,0.3 0.1,0.1 0.3,0.3 0.5,0.4 0.2,0.1 0.5,0.4 0.9,0.7 l 0.6,0.4 c 0.2,0.1 0.3,0.3 0.6,0.5 0.3,0.2 0.4,0.4 0.5,0.5 0.1,0.1 0.2,0.3 0.3,0.5 0.1,0.2 0.1,0.3 0.2,0.4 0,0.2 0.1,0.3 0.1,0.5 0,0.4 -0.1,0.9 -0.3,1.3 -0.2,0.4 -0.6,0.7 -1,1 -0.4,0.3 -0.9,0.4 -1.4,0.5 -0.5,0.1 -1,0.2 -1.6,0.2 -1.2,0 -2.3,-0.1 -3.6,-0.3 z"
   id="path622" />
</g><g
         id="g628">
	<path
   class="st0"
   d="m 99.1,44.3 c 0.3,-3.9 0.5,-6.9 0.5,-9 v -1 c 0.9,0 1.5,0 1.8,0 0.1,0 0.7,0 1.7,0 -0.1,1.1 -0.2,2.1 -0.2,3.1 -0.1,1.4 -0.1,2.6 -0.2,3.8 0,1.2 -0.1,2.2 -0.1,3 H 101 c -0.3,0.1 -0.9,0.1 -1.9,0.1 z"
   id="path626" />
</g><g
         id="g632">
	<path
   class="st0"
   d="m 104.8,44.3 c 0.1,-1.1 0.2,-2 0.2,-2.7 0.1,-1 0.1,-2.3 0.2,-3.9 0.1,-1.2 0.1,-2.1 0.1,-2.6 v -0.9 c 0.6,0 1.2,0 1.6,0 0.4,0 1,0 1.7,0 0.7,0 1.4,0 2,0 0.7,0 1.3,0 1.9,0.1 0.6,0.1 1,0.2 1.5,0.5 0.5,0.2 0.8,0.6 1.2,1 0.4,0.4 0.6,0.9 0.7,1.4 0.2,0.5 0.2,1.1 0.2,1.6 0,0.5 -0.1,1.1 -0.2,1.6 -0.1,0.5 -0.3,1 -0.5,1.4 -0.2,0.4 -0.5,0.8 -0.8,1.1 -0.3,0.3 -0.7,0.5 -1,0.8 -0.3,0.2 -0.6,0.3 -0.9,0.4 -0.3,0.1 -0.7,0.2 -1.2,0.2 -0.6,0.1 -1.2,0.1 -1.9,0.1 h -3.2 c -0.4,-0.1 -0.9,-0.1 -1.6,-0.1 z m 3.4,-2.2 c 0.3,0 0.6,0 0.9,0 0.5,0 1,0 1.4,-0.1 0.4,-0.1 0.8,-0.3 1.1,-0.6 0.3,-0.3 0.6,-0.7 0.7,-1.1 0.1,-0.4 0.2,-0.9 0.2,-1.4 0,-0.6 -0.1,-1.1 -0.3,-1.5 -0.2,-0.4 -0.5,-0.7 -0.9,-0.8 -0.4,-0.1 -0.9,-0.2 -1.5,-0.2 -0.4,0 -0.8,0 -1.3,0 z"
   id="path630" />
</g><g
         id="g636">
	<path
   class="st0"
   d="m 129.7,44.3 c 0.1,-1.1 0.2,-2 0.2,-2.7 0.1,-1 0.1,-2.3 0.2,-3.9 0.1,-1.2 0.1,-2.1 0.1,-2.6 v -0.9 c 0.6,0 1.1,0 1.6,0 0.4,0 1,0 1.7,0 0.7,0 1.4,0 2,0 0.7,0 1.3,0 1.9,0.1 0.6,0.1 1,0.2 1.5,0.5 0.5,0.2 0.9,0.6 1.2,1 0.3,0.4 0.6,0.9 0.7,1.4 0.1,0.5 0.2,1.1 0.2,1.6 0,0.5 -0.1,1.1 -0.2,1.6 -0.1,0.5 -0.3,1 -0.5,1.4 -0.2,0.4 -0.5,0.8 -0.8,1.1 -0.3,0.3 -0.6,0.5 -1,0.8 -0.3,0.2 -0.6,0.3 -0.9,0.4 -0.3,0.1 -0.7,0.2 -1.2,0.2 -0.6,0.1 -1.2,0.1 -1.9,0.1 h -3.2 c -0.5,-0.1 -1,-0.1 -1.6,-0.1 z m 3.4,-2.2 c 0.3,0 0.6,0 0.9,0 0.5,0 1,0 1.4,-0.1 0.4,-0.1 0.8,-0.3 1.1,-0.6 0.3,-0.3 0.6,-0.7 0.7,-1.1 0.1,-0.5 0.2,-0.9 0.2,-1.4 0,-0.6 -0.1,-1.1 -0.3,-1.5 -0.2,-0.4 -0.5,-0.7 -0.9,-0.8 -0.4,-0.1 -0.9,-0.2 -1.5,-0.2 -0.4,0 -0.8,0 -1.4,0 z"
   id="path634" />
</g><g
         id="g640">
	<path
   class="st0"
   d="m 115.1,44.3 0.7,-1 4.1,-7.1 0.4,-0.8 c 0.1,-0.2 0.3,-0.6 0.5,-1 0.9,0 1.6,0 2,0 0.7,0 1.4,0 2.1,0 l 1.2,3 2.4,5.9 0.5,1.1 c -0.9,0 -1.5,0 -1.7,0 -0.4,0 -1.1,0 -2,0 -0.2,-0.8 -0.6,-1.8 -1,-2.8 h -4 c -0.5,0.9 -0.9,1.8 -1.4,2.8 -1,0 -1.6,0 -1.8,0 -0.5,-0.1 -1.1,-0.1 -2,-0.1 z m 6.1,-5 h 2.5 c -0.6,-1.7 -0.9,-2.7 -1,-2.8 -0.3,0.7 -0.6,1.3 -0.9,1.8 z"
   id="path638" />
</g><g
         id="g644">
	<path
   class="st0"
   d="m 43.5,73.1 1.6,-2.6 9.9,-17.2 1,-1.9 c 0.3,-0.6 0.7,-1.4 1.3,-2.4 2.2,0 3.9,0 4.9,0 1.8,0 3.5,0 5,0 l 2.8,7.4 5.7,14.2 1.1,2.6 c -2.2,0 -3.6,0 -4,0 -1.1,0 -2.7,0 -4.7,0 C 67.5,71.3 66.7,69 65.7,66.3 H 56 c -1.1,2.1 -2.2,4.4 -3.4,6.9 -2.4,0 -3.8,0 -4.4,0 C 47.3,73 45.7,73 43.5,73.1 Z m 14.9,-12 h 5.9 c -1.5,-4.2 -2.3,-6.4 -2.4,-6.9 -0.8,1.7 -1.5,3.2 -2.1,4.2 z"
   id="path642" />
</g><g
         id="g648">
	<path
   class="st0"
   d="m 79.1,73.1 c 0.3,-2.4 0.4,-4.3 0.6,-5.8 0.2,-2.2 0.3,-5.1 0.4,-8.8 0.1,-3.8 0.2,-6.3 0.2,-7.6 V 49 c 3.8,0 7.4,0 10.7,0 3.3,0 6.5,0 9.6,0 -0.2,2.7 -0.3,4.5 -0.3,5.3 H 98.6 97.3 96 92.2 c -0.4,0 -1.7,0 -3.8,0 l -0.2,4.1 h 2.8 3 c 0.9,0 2.3,0 4.1,0 -0.1,2.2 -0.2,4 -0.2,5.2 -2.1,-0.1 -3.6,-0.1 -4.6,-0.1 -1.7,0 -3.5,0 -5.5,0.1 L 87.6,70 v 2.4 0.8 H 83.5 C 83.2,73 81.7,73 79.1,73.1 Z"
   id="path646" />
</g><g
         id="g652">
	<path
   class="st0"
   d="m 102.4,73 c 0.7,-9.5 1.1,-16.8 1.1,-21.9 v -2.3 c 2.2,0 3.7,0 4.5,0 0.3,0 1.7,0 4.1,0 -0.2,2.7 -0.4,5.2 -0.6,7.5 -0.2,3.3 -0.3,6.4 -0.4,9.3 -0.1,2.9 -0.1,5.3 -0.1,7.3 h -3.9 c -0.7,0.1 -2.3,0.1 -4.7,0.1 z"
   id="path650" />
</g><g
         id="g656">
	<path
   class="st0"
   d="m 122.1,73.1 c 0.6,-5.7 1,-12 1.1,-18.9 l -8.1,0.2 0.1,-2 c 0.1,-1 0.1,-2.2 0.1,-3.5 3.6,0 7.8,0 12.7,0 h 4.7 4.6 2.5 l -0.1,1.7 c -0.1,0.9 -0.1,1.7 -0.1,2.3 0,0.6 0,1.1 0,1.4 -2.7,-0.1 -5,-0.2 -6.8,-0.2 h -1.3 c -0.2,2.1 -0.3,4 -0.4,5.8 -0.1,2.5 -0.2,5 -0.3,7.4 -0.1,2.4 -0.1,4.3 -0.1,5.8 -2.1,0 -3.4,0 -4.1,0 -0.7,-0.1 -2.1,-0.1 -4.5,0 z"
   id="path654" />
</g><path
         class="st1"
         d="m 20,82.4 c 39.4,-5.5 79.6,-5.3 119,0.1"
         id="path658" /><rect
         x="132.60001"
         y="71.400002"
         class="st2"
         width="8.1000004"
         height="11.7"
         id="rect660" /><text
         transform="matrix(1.0815,0,0,1,132.6226,78.5416)"
         class="st0 st3 st4"
         id="text662">®</text></g></g><style
     type="text/css"
     id="style592">
	.st0{fill:#24306E;}
	.st1{fill:none;stroke:#24306E;stroke-width:2;stroke-miterlimit:10;}
	.st2{fill:none;}
	.st3{font-family:'ArialMT';}
	.st4{font-size:10px;}
</style></svg>
