<?xml version="1.0" encoding="UTF-8" standalone="no"?>
<svg
   width="12"
   height="16"
   viewBox="0 0 12 16"
   class="bi bi-geo-alt-fill"
   fill="currentColor"
   version="1.1"
   id="svg146"
   sodipodi:docname="uniminuto_icon.svg"
   xml:space="preserve"
   inkscape:version="1.2.1 (9c6d41e410, 2022-07-14)"
   xmlns:inkscape="http://www.inkscape.org/namespaces/inkscape"
   xmlns:sodipodi="http://sodipodi.sourceforge.net/DTD/sodipodi-0.dtd"
   xmlns="http://www.w3.org/2000/svg"
   xmlns:svg="http://www.w3.org/2000/svg"><defs
     id="defs150"><style
       type="text/css"
       id="style6" /><style
       id="style16238">.cls-1{fill:#ff0017;}.cls-1,.cls-2,.cls-3,.cls-4{stroke:#000;stroke-miterlimit:10;}.cls-1,.cls-2{stroke-width:2px;}.cls-2,.cls-3,.cls-5{fill:#ffca45;}.cls-4{fill:none;}.cls-6{fill:#fed44a;}</style></defs><sodipodi:namedview
     id="namedview148"
     pagecolor="#ffffff"
     bordercolor="#111111"
     borderopacity="1"
     inkscape:showpageshadow="0"
     inkscape:pageopacity="0"
     inkscape:pagecheckerboard="1"
     inkscape:deskcolor="#d1d1d1"
     showgrid="false"
     inkscape:zoom="25.013902"
     inkscape:cx="2.4386439"
     inkscape:cy="8.9949981"
     inkscape:window-width="1358"
     inkscape:window-height="710"
     inkscape:window-x="0"
     inkscape:window-y="28"
     inkscape:window-maximized="1"
     inkscape:current-layer="layer1" /><path
     fill-rule="evenodd"
     d="m 6,16 c 0,0 6,-5.686 6,-10 A 6,6 0 0 0 0,6 c 0,4.314 6,10 6,10 z M 6,9 A 3,3 0 1 0 6,3 3,3 0 0 0 6,9 Z"
     id="path144" /><path
     style="fill:#ffffff;stroke-width:0.0799555"
     d="M 5.1370759,15.082375 C 2.5359941,12.347536 0.7737574,9.5833772 0.2186462,7.3675634 -0.0196972,6.4161782 0.0258025,5.1215567 0.3303772,4.1884333 0.9395607,2.3220826 2.4055768,0.91550974 4.3831337,0.30000614 5.2456378,0.03155653 6.7234219,0.0306472 7.5793384,0.29803942 10.437875,1.1910594 12.239486,3.8444708 11.890196,6.6470661 11.667924,8.4304975 10.491974,10.685398 8.47537,13.195046 c -0.8101338,1.008205 -2.3761254,2.706873 -2.4954496,2.706873 -0.034861,0 -0.4141407,-0.368795 -0.8428445,-0.819544 z M 6.614983,8.9874414 C 6.810184,8.9608362 7.1815309,8.8262678 7.4401985,8.6883989 8.699244,8.0173353 9.300066,6.5248341 8.869528,5.1378033 8.573895,4.1853831 7.9598628,3.5330603 7.031229,3.1848686 6.3783874,2.9400854 5.3246995,2.9849419 4.6820864,3.2848741 2.8089594,4.1591341 2.3704524,6.7010006 3.8391339,8.1711649 4.4067946,8.7393986 5.4559128,9.1512471 6.100161,9.0587682 6.1881121,9.0461432 6.419782,9.0140458 6.614983,8.9874414 Z"
     id="path379" /><g
     inkscape:groupmode="layer"
     id="layer1"
     inkscape:label="Logo"
     transform="translate(-2)"><g
       id="g17132"
       transform="matrix(0.08219321,0,0,0.08219321,-2.7549609,0.6362498)"><path
         class="st0"
         d="M 145.72162,52.574432 V 73.48642 h 3.061 c 2.61499,0 4.47199,-0.268982 5.57199,-0.820984 1.10401,-0.54303 1.969,-1.507019 2.60001,-2.869995 0.621,-1.364014 0.931,-3.583008 0.931,-6.650025 0,-4.055969 -0.69699,-6.828003 -2.09,-8.325988 -1.40402,-1.495972 -3.71801,-2.244996 -6.95602,-2.244996 z m -12.49201,-8.674011 h 18.56699 c 3.651,0 6.60703,0.473023 8.867,1.40802 2.25,0.945984 4.11301,2.291016 5.58301,4.046997 1.46802,1.765015 2.53202,3.805969 3.20099,6.140991 0.65903,2.336975 0.98801,4.80597 0.98801,7.417969 0,4.091004 -0.48899,7.265015 -1.478,9.519043 -0.98001,2.255982 -2.34399,4.144959 -4.095,5.661011 -1.742,1.523987 -3.61499,2.540955 -5.61899,3.046997 -2.74002,0.69696 -5.22702,1.044006 -7.44702,1.044006 h -18.56699 z m -44.952991,0.02698 h 13.293991 l 9.907,8.014038 10.507,-8.014038 h 11.77201 v 38.285034 h -12.719 v -21.45398 l -10.01302,11.335999 -0.64498,0.197998 -8.937,-10.94104 V 82.212433 H 88.276619 Z"
         id="path16984" /><path
         class="st1"
         d="m 147.7099,50.586151 v 20.91095 h 3.05902 c 2.61899,0 4.474,-0.266968 5.57498,-0.81897 1.10102,-0.544006 1.96601,-1.507019 2.599,-2.871033 0.621,-1.36499 0.93002,-3.582946 0.93002,-6.649963 0,-4.054993 -0.69601,-6.828003 -2.08801,-8.325012 -1.40399,-1.497009 -3.71899,-2.245972 -6.95901,-2.245972 z m -12.49298,-8.673035 h 18.56598 c 3.65301,0 6.60901,0.471985 8.86902,1.408021 2.25,0.945007 4.113,2.291015 5.582,4.047973 1.46899,1.764038 2.53299,3.804993 3.20099,6.142029 0.65799,2.333984 0.98797,4.802978 0.98797,7.414001 0,4.092957 -0.48797,7.265992 -1.47598,9.521973 -0.98099,2.254028 -2.34598,4.143982 -4.09799,5.658997 -1.73999,1.523986 -3.61301,2.540039 -5.61798,3.048034 -2.74002,0.695984 -5.22602,1.042969 -7.44803,1.042969 h -18.56598 z m -44.952005,0.02698 h 13.292995 l 9.90799,8.015015 10.50802,-8.015015 h 11.77098 v 38.28302 H 123.02592 V 58.770111 l -10.01502,11.335999 -0.642,0.197998 -8.93798,-10.938965 V 80.223114 H 90.264915 Z"
         id="path16986" /><polygon
         class="st0"
         points="166.40881,12.697297 169.03183,14.513337 169.03183,17.540316 167.06583,19.05533 162.14783,22.082308 156.57483,26.016329 154.27881,28.741304 150.67282,29.347323 149.03482,31.163301 145.75482,32.677338 144.11682,34.189301 140.50983,36.915314 136.57681,39.639313 133.29782,41.759308 132.96982,47.511322 132.96982,54.775299 132.96982,62.646332 134.28281,72.638336 135.59183,80.509308 134.93683,86.866303 135.91882,92.920319 137.23181,101.69931 137.23181,103.8183 136.90381,108.35928 137.55881,118.3493 136.2478,123.79831 137.23181,126.22031 131.33282,123.79831 130.01883,121.37628 131.65982,99.883301 130.6748,91.407318 129.03583,85.958282 129.03583,76.269318 127.39782,70.517303 127.39782,62.345306 127.06982,47.207306 126.08482,44.181305 121.49482,45.996307 117.23382,48.721344 115.59582,52.0513 111.00481,55.079315 104.77581,58.106293 99.530815,61.43631 94.28582,65.069305 91.334816,66.280304 89.039818,66.280304 88.383812,64.765289 88.383812,62.345306 92.647819,59.922333 98.547813,56.895294 103.46381,52.960297 107.39881,49.630341 111.33181,45.694305 113.29981,44.48233 114.93882,42.06131 118.54581,39.942291 121.16882,38.429291 126.08482,36.915314 125.10181,13.907319 124.11881,9.669343 127.72382,6.0362868 128.70782,8.4583445 130.6748,9.9723215 131.98581,12.697297 131.33282,17.540316 132.31381,34.493317 135.2648,34.189301 136.90381,31.466341 139.52683,29.95334 141.4938,28.741304 144.11682,28.741304 146.41083,27.228304 149.36282,24.807344 151.9848,22.990328 154.60681,21.47629 158.21381,18.752291 160.18082,16.330294 163.7868,14.816316 "
         id="polygon16988" /><polygon
         class="st2"
         points="169.02499,11.542451 171.64801,13.359407 171.64801,16.385408 169.681,17.900423 164.763,20.927401 159.19101,24.862398 156.89401,27.586397 153.289,28.193453 151.64999,30.009432 148.37,31.522432 146.73001,33.037445 143.125,35.762421 139.19202,38.48642 135.91299,40.605438 135.58401,46.358429 135.58401,53.621429 135.58401,61.493439 136.89801,71.483429 138.207,79.354401 137.552,85.712433 138.535,91.766449 139.84702,100.54541 139.84702,102.66541 139.51901,107.20541 140.17502,117.1954 138.86301,122.64441 139.84702,125.06741 133.94601,122.64441 132.634,120.22241 134.27402,98.729401 133.29001,90.252411 131.65201,84.803436 131.65201,75.115448 130.013,69.36441 130.013,61.190399 129.685,46.054413 128.70001,43.027435 124.111,44.844391 119.84901,47.567413 118.21,50.898407 113.62,53.925446 107.391,56.9534 102.14701,60.281403 96.900002,63.915436 93.948006,65.126434 91.655006,65.126434 90.999,63.61142 90.999,61.190399 95.261009,58.768402 101.163,55.741425 106.08001,51.807404 110.014,48.475433 113.94801,44.540436 115.913,43.330414 117.55401,40.906403 121.16001,38.788422 123.783,37.275421 128.70001,35.762421 127.717,12.754426 126.734,8.5154123 130.341,4.8833938 131.323,7.3054519 133.29001,8.8184519 134.60101,11.542451 133.94601,16.385408 134.92902,33.340424 137.88,33.037445 139.51901,30.311434 142.14099,28.79941 144.10901,27.586397 146.73001,27.586397 149.02701,26.073397 151.97601,23.653414 154.60001,21.837435 157.22501,20.32242 160.828,17.598421 162.79602,15.175446 166.40201,13.661408 "
         id="polygon16990" /><polygon
         class="st3"
         points="169.02499,11.542451 171.64801,13.359407 171.64801,16.385408 169.681,17.900423 164.763,20.927401 159.19101,24.862398 156.89401,27.586397 153.289,28.193453 151.64999,30.009432 148.37,31.522432 146.73001,33.037445 143.125,35.760407 139.19202,38.48642 135.91299,40.605438 135.58401,46.358429 135.58401,53.621429 135.58401,61.493439 136.89801,71.483429 138.207,79.354401 137.552,85.712433 138.535,91.765411 139.84702,100.54541 139.84702,102.66541 139.51901,107.20541 140.17502,117.1954 138.86301,122.64441 139.84702,125.06741 133.94601,122.64441 132.634,120.22241 134.27402,98.729401 133.29001,90.252411 131.65201,84.803436 131.65201,75.115448 130.013,69.36441 130.013,61.190399 129.685,46.054413 128.70001,43.027435 124.111,44.844391 119.84901,47.567413 118.21,50.898407 113.62,53.925446 107.391,56.9534 102.14701,60.281403 96.900002,63.915436 93.948006,65.126434 91.655006,65.126434 90.999,63.61142 90.999,61.190399 95.261009,58.768402 101.163,55.741425 106.08001,51.807404 110.014,48.475433 113.94801,44.540436 115.913,43.330414 117.55401,40.906403 121.16001,38.788422 123.783,37.275421 128.70001,35.760407 127.71801,12.754426 126.734,8.5154123 130.341,4.8833938 131.323,7.3054519 133.29001,8.8184519 134.60101,11.542451 133.94601,16.385408 134.92902,33.340424 137.88,33.037445 139.51901,30.311434 142.14099,28.79941 144.10901,27.586397 146.73001,27.586397 149.02701,26.073397 151.97601,23.653414 154.60001,21.835421 157.22501,20.32242 160.828,17.598421 162.79602,15.175446 166.40201,13.661408 "
         id="polygon16992" /></g></g><style
     type="text/css"
     id="style592">
	.st0{fill:#24306E;}
	.st1{fill:none;stroke:#24306E;stroke-width:2;stroke-miterlimit:10;}
	.st2{fill:none;}
	.st3{font-family:'ArialMT';}
	.st4{font-size:10px;}
</style><style
     type="text/css"
     id="style16982">
	.st0{fill-rule:evenodd;clip-rule:evenodd;fill:#1D1D1B;}
	.st1{fill-rule:evenodd;clip-rule:evenodd;fill:#FFCD00;}
	.st2{fill-rule:evenodd;clip-rule:evenodd;fill:#FFFFFF;}
	.st3{fill:none;stroke:#242422;stroke-width:0.661;stroke-miterlimit:22.9260006;}
	.st4{fill:#002F87;}
</style></svg>
