<?xml version="1.0" encoding="UTF-8" standalone="no"?>
<svg
   width="12"
   height="16"
   viewBox="0 0 12 16"
   class="bi bi-geo-alt-fill"
   fill="currentColor"
   version="1.1"
   id="svg146"
   sodipodi:docname="upb_icon.svg"
   xml:space="preserve"
   inkscape:version="1.2.1 (9c6d41e410, 2022-07-14)"
   xmlns:inkscape="http://www.inkscape.org/namespaces/inkscape"
   xmlns:sodipodi="http://sodipodi.sourceforge.net/DTD/sodipodi-0.dtd"
   xmlns="http://www.w3.org/2000/svg"
   xmlns:svg="http://www.w3.org/2000/svg"><defs
     id="defs150"><style
       type="text/css"
       id="style6" /><style
       id="style16238">.cls-1{fill:#ff0017;}.cls-1,.cls-2,.cls-3,.cls-4{stroke:#000;stroke-miterlimit:10;}.cls-1,.cls-2{stroke-width:2px;}.cls-2,.cls-3,.cls-5{fill:#ffca45;}.cls-4{fill:none;}.cls-6{fill:#fed44a;}</style></defs><sodipodi:namedview
     id="namedview148"
     pagecolor="#ffffff"
     bordercolor="#111111"
     borderopacity="1"
     inkscape:showpageshadow="0"
     inkscape:pageopacity="0"
     inkscape:pagecheckerboard="1"
     inkscape:deskcolor="#d1d1d1"
     showgrid="false"
     inkscape:zoom="25.013902"
     inkscape:cx="8.1154871"
     inkscape:cy="5.6968321"
     inkscape:window-width="1358"
     inkscape:window-height="693"
     inkscape:window-x="0"
     inkscape:window-y="46"
     inkscape:window-maximized="1"
     inkscape:current-layer="layer1" /><path
     fill-rule="evenodd"
     d="m 6,16 c 0,0 6,-5.686 6,-10 A 6,6 0 0 0 0,6 c 0,4.314 6,10 6,10 z M 6,9 A 3,3 0 1 0 6,3 3,3 0 0 0 6,9 Z"
     id="path144" /><path
     style="fill:#ffffff;stroke-width:0.0799555"
     d="M 5.1370759,15.082375 C 2.5359941,12.347536 0.7737574,9.5833772 0.2186462,7.3675634 -0.0196972,6.4161782 0.0258025,5.1215567 0.3303772,4.1884333 0.9395607,2.3220826 2.4055768,0.91550974 4.3831337,0.30000614 5.2456378,0.03155653 6.7234219,0.0306472 7.5793384,0.29803942 10.437875,1.1910594 12.239486,3.8444708 11.890196,6.6470661 11.667924,8.4304975 10.491974,10.685398 8.47537,13.195046 c -0.8101338,1.008205 -2.3761254,2.706873 -2.4954496,2.706873 -0.034861,0 -0.4141407,-0.368795 -0.8428445,-0.819544 z M 6.614983,8.9874414 C 6.810184,8.9608362 7.1815309,8.8262678 7.4401985,8.6883989 8.699244,8.0173353 9.300066,6.5248341 8.869528,5.1378033 8.573895,4.1853831 7.9598628,3.5330603 7.031229,3.1848686 6.3783874,2.9400854 5.3246995,2.9849419 4.6820864,3.2848741 2.8089594,4.1591341 2.3704524,6.7010006 3.8391339,8.1711649 4.4067946,8.7393986 5.4559128,9.1512471 6.100161,9.0587682 6.1881121,9.0461432 6.419782,9.0140458 6.614983,8.9874414 Z"
     id="path379" /><g
     inkscape:groupmode="layer"
     id="layer1"
     inkscape:label="Logo"
     transform="translate(-2)"><g
       id="g16311"
       transform="matrix(0.03170559,0,0,0.03170559,4.0868961,1.7837906)"><polygon
         class="cls-1"
         points="2.79,201.07 26.47,155.7 48.05,155.81 48.05,116.54 26.58,116.54 2.47,66.33 1,66.33 1,201.07 "
         id="polygon16244" /><polygon
         class="cls-1"
         points="244.05,201.07 220.37,155.7 198.79,155.81 198.79,116.54 220.26,116.54 244.37,66.33 245.84,66.33 245.84,201.07 "
         id="polygon16246" /><polygon
         class="cls-1"
         points="58.31,263.18 103.67,239.49 103.57,217.91 142.83,217.91 142.83,239.38 193.04,263.49 193.04,264.96 58.31,264.96 "
         id="polygon16248" /><polygon
         class="cls-1"
         points="188.18,2.79 142.82,26.47 142.92,48.05 103.66,48.05 103.66,26.58 53.45,2.47 53.45,1 188.18,1 "
         id="polygon16250" /><rect
         class="cls-2"
         x="198.78999"
         y="128.62"
         width="21.26"
         height="14.37"
         id="rect16252" /><rect
         class="cls-2"
         x="118.79"
         y="228.3"
         width="21.26"
         height="14.37"
         transform="rotate(-90,123.075,234.895)"
         id="rect16254" /><rect
         class="cls-2"
         x="118.79"
         y="37.18"
         width="21.26"
         height="14.37"
         transform="rotate(-90,123.075,43.775)"
         id="rect16256" /><rect
         class="cls-2"
         x="26.790001"
         y="128.62"
         width="21.26"
         height="14.37"
         id="rect16258" /><path
         class="cls-2"
         d="m 129.44,231.82 a 7.33,7.33 0 0 0 -7.3,-7.13 H 85.39 A 38,38 0 0 1 54.19,201 l -0.37,-2 V 55 h 150.74 v 146 a 38,38 0 0 1 -31.21,23.65 h -36.79 a 7.34,7.34 0 0 0 -7.11,7.34 c 0,0.15 0,0.29 0,0.44"
         transform="translate(-5.77,-6.94)"
         id="path16260" /><path
         d="m 129.63,214.22 c 0,-0.1 0,-0.2 0,-0.29 A 5.22,5.22 0 0 1 135,209 h 42.47 a 8.8,8.8 0 0 0 8.45,-7.79 V 72 H 73 v 127.9 l 0.07,1.29 A 8.81,8.81 0 0 0 81.5,209 h 42.65 a 5.27,5.27 0 0 1 5.47,4.8"
         transform="translate(-5.77,-6.94)"
         id="path16262" /><path
         class="cls-3"
         d="m 126.16,128.63 c 0.28,1.73 1.1,4 0.7,5.14 -0.54,1.55 -2,2.56 -3.22,3.63 a 13.44,13.44 0 0 0 -4.64,7.42 8.12,8.12 0 0 0 2.79,8 10.7,10.7 0 0 0 3.31,1.51 17.78,17.78 0 0 0 10,0.31 11.07,11.07 0 0 0 7.34,-6.46 c 1.23,-3.37 0.35,-7.24 -1.55,-10.29 a 29.81,29.81 0 0 0 -7.58,-7.57 43.42,43.42 0 0 0 -4.06,-3.19 10.29,10.29 0 0 0 -3.76,-1.45 10.25,10.25 0 0 1 0.67,2.95 z"
         transform="translate(-5.77,-6.94)"
         id="path16264" /><path
         class="cls-4"
         d="m 127.57,138.23 a 8.91,8.91 0 0 0 -5,8.36 6.27,6.27 0 0 0 1.35,3.94 7.15,7.15 0 0 0 5.08,2 12.52,12.52 0 0 0 7,-1.53 8,8 0 0 0 4,-5.7 10.47,10.47 0 0 0 -1.74,-6.42 23.84,23.84 0 0 0 -9.63,-9.1"
         transform="translate(-5.77,-6.94)"
         id="path16266" /><path
         class="cls-4"
         d="m 128.55,138.67 a 7.69,7.69 0 0 0 -2.77,5.06 8,8 0 0 0 0.48,4.62 4.81,4.81 0 0 0 3.52,2.84"
         transform="translate(-5.77,-6.94)"
         id="path16268" /><path
         class="cls-4"
         d="m 129.45,133.13 a 32.64,32.64 0 0 1 5.7,7.76 10.87,10.87 0 0 1 1.57,5.62 4.79,4.79 0 0 1 -3.28,4.43"
         transform="translate(-5.77,-6.94)"
         id="path16270" /><path
         class="cls-4"
         d="m 129.85,139.44 a 9.78,9.78 0 0 0 -1,2.62 7,7 0 0 0 -0.26,4 6.06,6.06 0 0 0 1.48,2.21 c 0.29,0.3 0.58,0.6 0.89,0.88"
         transform="translate(-5.77,-6.94)"
         id="path16272" /><path
         class="cls-4"
         d="m 131.38,138.8 a 7.23,7.23 0 0 1 1.16,2.26 12.16,12.16 0 0 1 0.83,3.55 7.15,7.15 0 0 1 -1.29,4.43"
         transform="translate(-5.77,-6.94)"
         id="path16274" /><path
         class="cls-5"
         d="m 102.27,114.39 v -1.19 c 3.06,-0.34 3.43,-0.76 2.78,-2.38 -0.65,-1.62 -1.55,-3.78 -2.54,-6.45 H 92.36 c -0.75,1.91 -1.46,3.56 -2.12,5.3 -1,2.77 -0.37,3.11 3.48,3.53 v 1.19 H 82.86 v -1.19 c 3,-0.34 3.72,-0.64 5.36,-4.46 L 98,86.45 99.5,86.19 c 3,7.26 6.21,15.29 9.17,22.64 1.5,3.69 1.93,4 5.26,4.37 v 1.19 z m -4.7,-22.64 c -1.5,3.66 -3.1,7.52 -4.51,10.88 h 8.79 z"
         transform="translate(-5.77,-6.94)"
         id="path16276" /><path
         class="cls-5"
         d="m 110.45,166.86 c -2.73,0.17 -3.73,0.84 -3.81,2.75 0,1 -0.13,2.71 -0.13,6.54 v 4.5 c 0,4.24 -0.52,7.49 -3,10 -2,2 -5,2.67 -8,2.67 a 12.13,12.13 0 0 1 -7.12,-1.92 c -2.6,-1.91 -3.86,-4.79 -3.86,-9.66 v -10.59 c 0,-3.74 -0.34,-4 -3.81,-4.29 V 165.7 H 92.1 v 1.16 c -3.47,0.21 -3.81,0.55 -3.81,4.29 v 10.41 c 0,6.08 3,9.41 8.2,9.41 6.16,0 8.11,-3.66 8.11,-10.57 v -4.25 c 0,-3.83 -0.13,-5.41 -0.22,-6.54 -0.13,-1.87 -1.13,-2.58 -4.34,-2.75 v -1.16 h 10.41 z"
         transform="translate(-5.77,-6.94)"
         id="path16278" /><path
         class="cls-5"
         d="m 132.39,165.56 c 3.08,0 5.55,0.56 7.33,1.84 a 7.25,7.25 0 0 1 2.86,6.1 c 0,6.26 -5.42,8.8 -9.54,8.8 a 7.94,7.94 0 0 1 -1.17,-0.09 l -3,-0.77 v 6.69 c 0,3.61 0.31,3.7 4.3,4.13 v 1.2 h -12 v -1.2 c 3.73,-0.39 3.91,-0.65 3.91,-4.21 V 171 c 0,-3.82 -0.48,-3.91 -3.91,-4.25 v -1.2 z m -3.52,14.38 a 8.12,8.12 0 0 0 3.17,0.55 c 2.91,0 6.51,-1.45 6.51,-6.86 0,-4.72 -3.13,-6.61 -6.77,-6.61 a 3.91,3.91 0 0 0 -2.43,0.51 c -0.35,0.3 -0.48,0.82 -0.48,2 z"
         transform="translate(-5.77,-6.94)"
         id="path16280" /><path
         class="cls-5"
         d="m 167.82,178.46 c 4.16,0.68 7.55,2.66 7.55,6.82 a 7.4,7.4 0 0 1 -4.21,6.61 14.42,14.42 0 0 1 -7.5,1.68 H 153 v -1.21 c 3.69,-0.34 3.91,-0.73 3.91,-4.12 V 171 c 0,-3.56 -0.39,-3.86 -3.91,-4.16 v -1.2 h 11.37 c 3.25,0 5.29,0.55 6.68,1.5 a 5.59,5.59 0 0 1 2.56,4.81 c -0.02,4.05 -3.36,5.91 -5.79,6.51 z m -5,-0.52 c 4.77,0 6.72,-1.89 6.72,-5.41 0,-3 -1.86,-5.32 -6,-5.32 a 4.53,4.53 0 0 0 -2.42,0.43 c -0.35,0.26 -0.48,0.73 -0.48,2.1 v 8.2 z m -2.21,10.22 c 0,3.09 0.74,3.86 3.82,3.86 3.38,0 6.68,-1.8 6.68,-6.31 0,-4.51 -3.13,-6.27 -8.42,-6.27 h -2.08 z"
         transform="translate(-5.77,-6.94)"
         id="path16282" /><path
         class="cls-6"
         d="m 159.71,113.54 v -2.67 a 7.83,7.83 0 0 0 5.85,-3.66 15.23,15.23 0 0 0 2,-8.24 17.09,17.09 0 0 0 -1.1,-6.84 8.08,8.08 0 0 0 -3.2,-3.7 9.85,9.85 0 0 0 -5.18,-1.27 11.79,11.79 0 0 0 -4.32,0.79 7.72,7.72 0 0 0 -3.39,2.54 9.55,9.55 0 0 0 -1.82,3.85 20.92,20.92 0 0 0 -0.46,4.52 15.4,15.4 0 0 0 2,8.4 7.81,7.81 0 0 0 5.84,3.61 v 2.67 c -1.32,0 -3.17,0.07 -5.56,0.1 -2.39,0.03 -4.45,0.09 -6.19,0.17 q -0.17,-2.24 -0.66,-5.92 l 0.15,-0.13 h 0.53 l 0.15,0.13 a 12.88,12.88 0 0 0 0.58,1.92 1.25,1.25 0 0 0 0.67,0.63 4.25,4.25 0 0 0 1.53,0.19 H 152 v -0.29 a 12.44,12.44 0 0 1 -5.82,-4.84 13.66,13.66 0 0 1 -2.05,-7.45 12.35,12.35 0 0 1 1.59,-6.46 10.33,10.33 0 0 1 4.73,-4.07 18.46,18.46 0 0 1 7.65,-1.43 q 6.51,0 10,3.2 a 11.29,11.29 0 0 1 3.47,8.76 16,16 0 0 1 -0.39,3.56 12.92,12.92 0 0 1 -1.36,3.42 11.78,11.78 0 0 1 -2.48,3 13.08,13.08 0 0 1 -3.64,2.27 v 0.29 h 4.9 c 1.09,0 1.75,-0.17 2,-0.5 a 7.91,7.91 0 0 0 0.77,-2.24 l 0.15,-0.14 H 172 l 0.15,0.14 c -0.33,2.45 -0.56,4.42 -0.67,5.91 q -2.62,-0.1 -6.15,-0.15 z"
         transform="translate(-5.77,-6.94)"
         id="path16284" /></g></g><style
     type="text/css"
     id="style592">
	.st0{fill:#24306E;}
	.st1{fill:none;stroke:#24306E;stroke-width:2;stroke-miterlimit:10;}
	.st2{fill:none;}
	.st3{font-family:'ArialMT';}
	.st4{font-size:10px;}
</style></svg>
